<svg xmlns="http://www.w3.org/2000/svg" viewBox="0 0 803.8 245.62"><defs><style>.cls-1,.cls-4{fill:#fff;}.cls-2{font-size:206.89px;fill:#397be5;font-family:nemodedemo, nemode demo;}.cls-3{fill:#999;}.cls-4{font-size:56.65px;font-family:OliviaAntique, Olivia;}</style></defs><title>logo_3</title><g id="Capa_2" data-name="Capa 2"><g id="Capa_1-2" data-name="Capa 1"><path class="cls-1" d="M138.44,96.83V44.09c0-7.43-3.34-13.83-7.25-18.81a68,68,0,0,0-13.63-12.67,118.12,118.12,0,0,0-12.86-8c-1.74-.94-3.2-1.68-4.24-2.19l-1.23-.58-.36-.17-.1,0,0,0h0L95.18,0,91.64,1.58h0l0,0-.1,0-.35.17c-.3.13-.72.33-1.24.58-1,.51-2.5,1.25-4.24,2.19a118.12,118.12,0,0,0-12.86,8A68,68,0,0,0,59.17,25.28c-3.9,5-7.25,11.38-7.25,18.81V96.83L0,153.08v46.64l62.3-25.95h8.91c-1.42,5.31-2.74,12.52-1.47,19,1.39,7,6.25,14.84,9.82,20,1.92,2.8,3.77,5.24,5.14,7,.68.87,1.25,1.58,1.65,2.07l.48.58.14.16,0,0,0,0L93.27,230l6.65-7h0v0l0,0,.15-.16c.12-.14.3-.33.53-.57.44-.49,1.08-1.19,1.84-2.05,1.53-1.73,3.6-4.15,5.78-6.92,4.07-5.16,9.58-12.83,11.61-19.68,2-6.7,1.23-14.33.26-19.76h7.91l62.3,25.95V153.08ZM51.92,159.46,17.31,173.88V160l34.61-37.49Zm51.36,29.15c-1,3.29-4.44,8.6-8.61,13.89l-.63.8-.25-.36c-3.63-5.27-6.47-10.43-7.09-13.55-.57-2.87.15-7.61,1.63-12.66.31-1,.63-2,.94-3h13.2c.15.69.31,1.42.46,2.18C103.9,180.92,104.16,185.66,103.28,188.61Zm17.86-32.15H69.22V44c0-2.12,1-4.83,3.57-8.13A51,51,0,0,1,83,26.51,100.71,100.71,0,0,1,93.88,19.7l1.3-.69,1.3.69a99.75,99.75,0,0,1,10.93,6.81,51,51,0,0,1,10.16,9.33c2.59,3.3,3.57,6,3.57,8.13Zm51.92,17.42-34.62-14.42v-37L173.06,160Z"/><text class="cls-2" transform="translate(193.76 204.24)">apolo</text><rect class="cls-3" x="663.8" y="63.62" width="140" height="72.83" rx="20.98" ry="20.98"/><text class="cls-4" transform="translate(680.23 121.25)">ERP</text></g></g></svg>